<?xml version="1.0" encoding="UTF-8"?>
<svg width="640" height="480" xmlns="http://www.w3.org/2000/svg" xmlns:svg="http://www.w3.org/2000/svg">
 <g>
  <title>Layer 1</title>
  <g id="svg_1" transform="rotate(0.22433720529079437 296.4808654785087,210.57711791991352) ">
   <g id="g7540" transform="rotate(0.49682873487472534 489.7263793945321,-94.33603668213199) "/>
  </g>
  <g stroke="null" id="svg_2">
   <path stroke="#000000" d="m415.51381,34.574616l11.784376,7.580009l11.784391,7.580019l4.242465,7.572313l-0.71326,8.403766l-22.861894,-14.705343l-22.861896,-14.705331l9.009602,-3.354452l9.616217,1.629019z" id="rect7551" stroke-dashoffset="0" stroke-miterlimit="4" stroke-linejoin="round" stroke-linecap="round" stroke-width="3.970525" fill-rule="nonzero" fill="none"/>
   <path stroke="#000000" d="m408.676983,45.343164l21.028208,13.525877l-23.56267,31.504407l-21.028208,-13.525877l23.56267,-31.504407z" id="rect6598" stroke-dashoffset="0" stroke-miterlimit="4" stroke-linejoin="round" stroke-linecap="round" stroke-width="3.970525" fill-rule="nonzero" fill="none"/>
   <path stroke="#000000" d="m409.661966,46.369281l1.666204,1.071745l-3.984507,5.327475l-1.666204,-1.071745l3.984507,-5.327475z" id="rect6600" stroke-dashoffset="0" stroke-miterlimit="4" stroke-linejoin="round" stroke-linecap="round" stroke-width="3.970525" fill-rule="nonzero" fill="none"/>
   <path stroke="#000000" d="m412.114187,47.946621l1.666204,1.071745l-3.984507,5.327475l-1.666204,-1.071745l3.984507,-5.327475z" id="rect6602" stroke-dashoffset="0" stroke-miterlimit="4" stroke-linejoin="round" stroke-linecap="round" stroke-width="3.970525" fill-rule="nonzero" fill="none"/>
   <path stroke="#000000" d="m414.566398,49.523946l1.66622,1.071755l-3.984507,5.327475l-1.66622,-1.071755l3.984507,-5.327475z" id="rect6604" stroke-dashoffset="0" stroke-miterlimit="4" stroke-linejoin="round" stroke-linecap="round" stroke-width="3.970525" fill-rule="nonzero" fill="none"/>
   <path stroke="#000000" d="m417.018613,51.101282l1.666225,1.071758l-3.984507,5.327475l-1.666225,-1.071758l3.984507,-5.327475z" id="rect6606" stroke-dashoffset="0" stroke-miterlimit="4" stroke-linejoin="round" stroke-linecap="round" stroke-width="3.970525" fill-rule="nonzero" fill="none"/>
   <path stroke="#000000" d="m419.470852,52.678633l1.666209,1.071748l-3.984507,5.327475l-1.666209,-1.071748l3.984507,-5.327475z" id="rect6608" stroke-dashoffset="0" stroke-miterlimit="4" stroke-linejoin="round" stroke-linecap="round" stroke-width="3.970525" fill-rule="nonzero" fill="none"/>
   <path stroke="#000000" d="m421.923079,54.255968l1.666209,1.071748l-3.984507,5.327475l-1.666209,-1.071748l3.984507,-5.327475z" id="rect6610" stroke-dashoffset="0" stroke-miterlimit="4" stroke-linejoin="round" stroke-linecap="round" stroke-width="3.970525" fill-rule="nonzero" fill="none"/>
   <path stroke="#000000" d="m424.375307,55.833312l1.666204,1.071745l-3.984507,5.327475l-1.666204,-1.071745l3.984507,-5.327475z" id="rect6612" stroke-dashoffset="0" stroke-miterlimit="4" stroke-linejoin="round" stroke-linecap="round" stroke-width="3.970525" fill-rule="nonzero" fill="none"/>
   <path stroke="#000000" d="m426.827545,57.410606l1.666204,1.071745l-3.984507,5.327475l-1.666204,-1.071745l3.984507,-5.327475z" id="rect6614" stroke-dashoffset="0" stroke-miterlimit="4" stroke-linejoin="round" stroke-linecap="round" stroke-width="3.970525" fill-rule="nonzero" fill="none"/>
   <path stroke="#000000" d="m416.884641,99.064371l18.497609,11.898131l-6.007901,8.032848l-18.497609,-11.898131l6.007901,-8.032848z" id="rect6594" stroke-dashoffset="0" stroke-miterlimit="4" stroke-linejoin="round" stroke-linecap="round" stroke-width="3.970525" fill-rule="nonzero" fill="#eceaeb"/>
   <rect stroke="#000000" height="62.744766" id="rect1307" width="19.703022" x="45.279026" y="264.226088" stroke-dashoffset="0" stroke-miterlimit="4" stroke-linejoin="round" stroke-linecap="round" stroke-width="3.970525" fill-rule="nonzero" fill="none" transform="matrix(0.5120731736139641,0.32937845614760775,-0.3551732138662902,0.47488342243925513,217.02038486620518,284.4315601323345) "/>
   <rect stroke="#000000" height="168.95441" id="rect2182" width="36.89896" x="97.090526" y="124.025527" stroke-dashoffset="0" stroke-miterlimit="4" stroke-linejoin="round" stroke-linecap="round" stroke-width="3.970525" fill-rule="nonzero" fill="none" transform="matrix(0.5120731736139641,0.32937845614760775,-0.3551732138662902,0.47488342243925513,192.79887725905317,255.55896726766053) "/>
   <rect stroke="#000000" height="40.928436" id="rect2184" width="58.882034" x="139.709604" y="110.745066" stroke-dashoffset="0" stroke-miterlimit="4" stroke-linejoin="round" stroke-linecap="round" stroke-width="3.970525" fill-rule="nonzero" fill="none" transform="matrix(0.5120731736139641,0.32937845614760775,-0.3551732138662902,0.47488342243925513,171.30342640193203,229.93587194399407) "/>
   <rect stroke="#000000" height="122.71062" id="rect2186" width="69.507133" x="179.798949" y="4.395556" stroke-dashoffset="0" stroke-miterlimit="4" stroke-linejoin="round" stroke-linecap="round" stroke-width="3.970525" fill-rule="nonzero" fill="none" transform="matrix(0.5120731736139641,0.32937845614760775,-0.3551732138662902,0.47488342243925513,153.09930147750873,208.23611979585797) "/>
   <path stroke="#000000" d="m374.631987,61.301798c-10.965543,-6.901893 -22.691061,-13.263868 -35.548467,-18.83627c-2.277254,-0.81628 -5.834014,3.248459 -0.597611,5.657108c24.708391,9.92384 43.013738,25.950971 35.262781,34.763782l-139.025124,185.883181l64.007457,41.17122l140.740302,-188.176455l-31.156667,-20.040759l9.321606,-12.463429c0,0 -32.103425,-21.097202 -43.004277,-27.958378z" id="rect3061" stroke-dashoffset="0" stroke-miterlimit="4" stroke-linejoin="round" stroke-linecap="round" stroke-width="3.970525" fill-rule="nonzero" fill="none"/>
   <path stroke="#000000" d="m419.210419,89.358774l27.460201,24.031397l-3.215873,4.299775l-30.244009,-19.453714l5.999681,-8.877458z" id="rect5718" stroke-dashoffset="0" stroke-miterlimit="4" stroke-linejoin="round" stroke-linecap="round" stroke-width="3.970525" fill-rule="nonzero" fill="#eceaeb"/>
   <path stroke="#000000" d="m418.125872,119.966228l14.661249,9.430487l-30.034715,40.157838l-14.661249,-9.430487l30.034715,-40.157838z" id="rect6596" stroke-dashoffset="0" stroke-miterlimit="4" stroke-linejoin="round" stroke-linecap="round" stroke-width="3.970525" fill-rule="nonzero" fill="none"/>
   <path stroke="null" d="m369.827176,88.652732l47.909689,30.816727l-5.109497,6.83164l-47.909689,-30.816727l5.109497,-6.83164z" id="rect11166" stroke-dashoffset="0" stroke-miterlimit="4" stroke-linejoin="round" stroke-linecap="round" stroke-width="3.970525" fill-rule="nonzero" fill="none"/>
   <path stroke="null" d="m364.831651,95.33198l47.909689,30.816727l-5.109497,6.83164l-47.909689,-30.816727l5.109497,-6.83164z" id="rect12922" stroke-dashoffset="0" stroke-miterlimit="4" stroke-linejoin="round" stroke-linecap="round" stroke-width="3.970525" fill-rule="nonzero" fill="none"/>
   <path stroke="null" d="m359.708803,102.18147l47.909689,30.816727l-5.109497,6.83164l-47.909689,-30.816727l5.109497,-6.83164z" id="rect12926" stroke-dashoffset="0" stroke-miterlimit="4" stroke-linejoin="round" stroke-linecap="round" stroke-width="3.970525" fill-rule="nonzero" fill="none"/>
   <path stroke="null" d="m354.713282,108.860713l47.909689,30.816727l-5.109497,6.83164l-47.909689,-30.816727l5.109497,-6.83164z" id="rect12928" stroke-dashoffset="0" stroke-miterlimit="4" stroke-linejoin="round" stroke-linecap="round" stroke-width="3.970525" fill-rule="nonzero" fill="none"/>
   <path stroke="null" d="m349.448385,115.900141l47.909689,30.816727l-5.10949,6.83163l-47.909689,-30.816727l5.10949,-6.83163z" id="rect12934" stroke-dashoffset="0" stroke-miterlimit="4" stroke-linejoin="round" stroke-linecap="round" stroke-width="3.970525" fill-rule="nonzero" fill="none"/>
   <path stroke="null" d="m344.45286,122.579394l47.909689,30.816727l-5.109486,6.831625l-47.909689,-30.816727l5.109486,-6.831625z" id="rect12936" stroke-dashoffset="0" stroke-miterlimit="4" stroke-linejoin="round" stroke-linecap="round" stroke-width="3.970525" fill-rule="nonzero" fill="none"/>
   <path stroke="null" d="m339.587519,129.084583l62.872232,40.441014l-5.109493,6.831635l-62.872232,-40.441014l5.109493,-6.831635z" id="rect12942" stroke-dashoffset="0" stroke-miterlimit="4" stroke-linejoin="round" stroke-linecap="round" stroke-width="3.970525" fill-rule="nonzero" fill="none"/>
   <path stroke="null" d="m334.592,135.76382l32.371658,20.822272c-3.565047,-0.621346 -7.1356,-1.283103 -9.928264,3.732086l-27.552891,-17.722718l5.109497,-6.83164z" id="rect12944" stroke-dashoffset="0" stroke-miterlimit="4" stroke-linejoin="round" stroke-linecap="round" stroke-width="3.970525" fill-rule="nonzero" fill="none"/>
   <path stroke="null" d="m329.306245,142.831132l27.480028,17.675851l-5.109486,6.831625l-27.480028,-17.675851l5.109486,-6.831625z" id="path12959" stroke-dashoffset="0" stroke-miterlimit="4" stroke-linejoin="round" stroke-linecap="round" stroke-width="3.970525" fill-rule="nonzero" fill="none"/>
   <path stroke="null" d="m324.299395,149.525537l27.480033,17.675854l-5.109493,6.831635l-27.480033,-17.675854l5.109493,-6.831635z" id="path12977" stroke-dashoffset="0" stroke-miterlimit="4" stroke-linejoin="round" stroke-linecap="round" stroke-width="3.970525" fill-rule="nonzero" fill="none"/>
   <path stroke="null" d="m319.019315,156.585257l27.480033,17.675854l-5.109493,6.831635l-27.480033,-17.675854l5.109493,-6.831635z" id="path12981" stroke-dashoffset="0" stroke-miterlimit="4" stroke-linejoin="round" stroke-linecap="round" stroke-width="3.970525" fill-rule="nonzero" fill="none"/>
   <path stroke="null" d="m314.012456,163.279669l27.480033,17.675854l-5.109497,6.83164l-27.480033,-17.675854l5.109497,-6.83164z" id="path12983" stroke-dashoffset="0" stroke-miterlimit="4" stroke-linejoin="round" stroke-linecap="round" stroke-width="3.970525" fill-rule="nonzero" fill="none"/>
   <path stroke="null" d="m308.595769,170.522021l27.480033,17.675854l-5.109493,6.831635l-27.480033,-17.675854l5.109493,-6.831635z" id="path12989" stroke-dashoffset="0" stroke-miterlimit="4" stroke-linejoin="round" stroke-linecap="round" stroke-width="3.970525" fill-rule="nonzero" fill="none"/>
   <path stroke="null" d="m303.588912,177.216439l27.480033,17.675854l-5.109497,6.83164l-27.480033,-17.675854l5.109497,-6.83164z" id="path12991" stroke-dashoffset="0" stroke-miterlimit="4" stroke-linejoin="round" stroke-linecap="round" stroke-width="3.970525" fill-rule="nonzero" fill="none"/>
   <path stroke="null" d="m298.308828,184.276153l27.480033,17.675854l-5.109497,6.83164l-27.480033,-17.675854l5.109497,-6.83164z" id="path12993" stroke-dashoffset="0" stroke-miterlimit="4" stroke-linejoin="round" stroke-linecap="round" stroke-width="3.970525" fill-rule="nonzero" fill="none"/>
   <path stroke="null" d="m293.301969,190.970559l27.480033,17.675854l-5.109483,6.831621l-27.480033,-17.675854l5.109483,-6.831621z" id="path12995" stroke-dashoffset="0" stroke-miterlimit="4" stroke-linejoin="round" stroke-linecap="round" stroke-width="3.970525" fill-rule="nonzero" fill="none"/>
   <path stroke="null" d="m287.83975,198.273801l27.480033,17.675854l-5.109497,6.83164l-27.480033,-17.675854l5.109497,-6.83164z" id="path13005" stroke-dashoffset="0" stroke-miterlimit="4" stroke-linejoin="round" stroke-linecap="round" stroke-width="3.970525" fill-rule="nonzero" fill="none"/>
   <path stroke="null" d="m282.832888,204.968218l27.480033,17.675854l-5.109493,6.831635l-27.480033,-17.675854l5.109493,-6.831635z" id="path13007" stroke-dashoffset="0" stroke-miterlimit="4" stroke-linejoin="round" stroke-linecap="round" stroke-width="3.970525" fill-rule="nonzero" fill="none"/>
   <path stroke="null" d="m277.552822,212.027916l27.480033,17.675854l-5.109493,6.831635l-27.480033,-17.675854l5.109493,-6.831635z" id="path13009" stroke-dashoffset="0" stroke-miterlimit="4" stroke-linejoin="round" stroke-linecap="round" stroke-width="3.970525" fill-rule="nonzero" fill="none"/>
   <path stroke="null" d="m272.545963,218.722327l27.480033,17.675854l-5.109497,6.83164l-27.480033,-17.675854l5.109497,-6.83164z" id="path13011" stroke-dashoffset="0" stroke-miterlimit="4" stroke-linejoin="round" stroke-linecap="round" stroke-width="3.970525" fill-rule="nonzero" fill="none"/>
   <path stroke="null" d="m266.884143,226.292431l27.480033,17.675854l-5.109486,6.831625l-27.480033,-17.675854l5.109486,-6.831625z" id="path13021" stroke-dashoffset="0" stroke-miterlimit="4" stroke-linejoin="round" stroke-linecap="round" stroke-width="3.970525" fill-rule="nonzero" fill="none"/>
   <path stroke="null" d="m256.597221,240.04655l27.480033,17.675854l-5.109504,6.831649l-27.480033,-17.675854l5.109504,-6.831649z" id="path13025" stroke-dashoffset="0" stroke-miterlimit="4" stroke-linejoin="round" stroke-linecap="round" stroke-width="3.970525" fill-rule="nonzero" fill="none"/>
   <path stroke="null" d="m251.590356,246.740962l27.480033,17.675854l-5.109497,6.83164l-27.480033,-17.675854l5.109497,-6.83164z" id="path13027" stroke-dashoffset="0" stroke-miterlimit="4" stroke-linejoin="round" stroke-linecap="round" stroke-width="3.970525" fill-rule="nonzero" fill="none"/>
   <path stroke="null" d="m246.173681,253.983295l27.480033,17.675854l-5.109518,6.831668l-27.480033,-17.675854l5.109518,-6.831668z" id="path13037" stroke-dashoffset="0" stroke-miterlimit="4" stroke-linejoin="round" stroke-linecap="round" stroke-width="3.970525" fill-rule="nonzero" fill="none"/>
   <path stroke="null" d="m241.166814,260.677728l27.480033,17.675854l-5.109483,6.831621l-27.480033,-17.675854l5.109483,-6.831621z" id="path13039" stroke-dashoffset="0" stroke-miterlimit="4" stroke-linejoin="round" stroke-linecap="round" stroke-width="3.970525" fill-rule="nonzero" fill="none"/>
  </g>
 </g>
</svg>
